<?xml version="1.0" encoding="utf-8"?>
<!-- Generator: Adobe Illustrator 21.1.0, SVG Export Plug-In . SVG Version: 6.00 Build 0)  -->
<svg version="1.1" id="Layer_1" xmlns="http://www.w3.org/2000/svg" xmlns:xlink="http://www.w3.org/1999/xlink" x="0px" y="0px"
	 viewBox="0 0 129.7 162.7" style="enable-background:new 0 0 129.7 162.7;" xml:space="preserve">
<style type="text/css">
	.st0{fill:#3EABD6;}
	.st1{fill:#D1E7F0;}
</style>
<circle class="st0" cx="104.8" cy="19" r="2.5"/>
<circle class="st0" cx="88" cy="6.9" r="4"/>
<path class="st1" d="M109.3,8c-2.1,0-3.9-1.7-3.9-3.9s1.7-3.9,3.9-3.9s3.9,1.7,3.9,3.9S111.5,8,109.3,8z M109.3,2
	c-1.2,0-2.1,1-2.1,2.1s1,2.1,2.1,2.1s2.1-1,2.1-2.1S110.5,2,109.3,2z"/>
<path class="st1" d="M63.5,162.4c-2.1,0-3.9-1.7-3.9-3.9s1.7-3.9,3.9-3.9s3.9,1.7,3.9,3.9S65.6,162.4,63.5,162.4z M63.5,156.4
	c-1.2,0-2.1,1-2.1,2.1s1,2.1,2.1,2.1s2.1-1,2.1-2.1S64.7,156.4,63.5,156.4z"/>
<circle class="st0" cx="41.3" cy="160.2" r="2.5"/>
<circle class="st0" cx="25" cy="147.5" r="4"/>
</svg>
