<?xml version="1.0" encoding="utf-8"?>
<!-- Generator: Adobe Illustrator 21.1.0, SVG Export Plug-In . SVG Version: 6.00 Build 0)  -->
<svg version="1.1" id="Layer_1" xmlns="http://www.w3.org/2000/svg" xmlns:xlink="http://www.w3.org/1999/xlink" x="0px" y="0px"
	 viewBox="0 0 129.7 162.7" style="enable-background:new 0 0 129.7 162.7;" xml:space="preserve">
<style type="text/css">
	.st0{fill:#3EABD6;}
	.st1{fill:#D1E7F0;}
</style>
<circle class="st0" cx="19.2" cy="22.4" r="2.5"/>
<circle class="st0" cx="47.7" cy="11.5" r="4"/>
<path class="st1" d="M28.7,7.7c-2.1,0-3.9-1.7-3.9-3.9S26.5,0,28.7,0s3.9,1.7,3.9,3.9S30.8,7.7,28.7,7.7z M28.7,1.7
	c-1.2,0-2.1,1-2.1,2.1s1,2.1,2.1,2.1s2.1-1,2.1-2.1S29.9,1.7,28.7,1.7z"/>
<path class="st1" d="M93.7,162.7c-2.1,0-3.9-1.7-3.9-3.9s1.7-3.9,3.9-3.9s3.9,1.7,3.9,3.9S95.8,162.7,93.7,162.7z M93.7,156.7
	c-1.2,0-2.1,1-2.1,2.1s1,2.1,2.1,2.1s2.1-1,2.1-2.1S94.9,156.7,93.7,156.7z"/>
<circle class="st0" cx="105.2" cy="146.4" r="2.5"/>
<circle class="st0" cx="77.7" cy="157.5" r="4"/>
</svg>
