<?xml version="1.0" encoding="utf-8"?>
<!-- Generator: Adobe Illustrator 21.1.0, SVG Export Plug-In . SVG Version: 6.00 Build 0)  -->
<svg version="1.1" id="Layer_1" xmlns="http://www.w3.org/2000/svg" xmlns:xlink="http://www.w3.org/1999/xlink" x="0px" y="0px"
	 viewBox="0 0 129.7 162.7" style="enable-background:new 0 0 129.7 162.7;" xml:space="preserve">
<style type="text/css">
	.st0{fill:#3EABD6;}
	.st1{fill:#D1E7F0;}
</style>
<circle class="st0" cx="104.3" cy="7.9" r="2.5"/>
<circle class="st0" cx="116.3" cy="24.2" r="4"/>
<path class="st1" d="M123.3,11.4c-2.1,0-3.9-1.7-3.9-3.9s1.7-3.9,3.9-3.9s3.9,1.7,3.9,3.9S125.5,11.4,123.3,11.4z M123.3,5.4
	c-1.2,0-2.1,1-2.1,2.1s1,2.1,2.1,2.1s2.1-1,2.1-2.1S124.5,5.4,123.3,5.4z"/>
<path class="st1" d="M39.4,157.5c-2,0.7-4.2-0.4-4.9-2.4c-0.7-2,0.4-4.2,2.4-4.9c2-0.7,4.2,0.4,4.9,2.4S41.4,156.8,39.4,157.5z
	 M37.5,151.8c-1.1,0.4-1.7,1.6-1.3,2.7c0.4,1.1,1.6,1.7,2.7,1.3c1.1-0.4,1.7-1.6,1.3-2.7C39.8,152,38.6,151.4,37.5,151.8z"/>
<circle class="st0" cx="13.3" cy="137.9" r="2.5"/>
<circle class="st0" cx="18.3" cy="150.2" r="4"/>
</svg>
