<?xml version="1.0" encoding="utf-8"?>
<!-- Generator: Adobe Illustrator 21.1.0, SVG Export Plug-In . SVG Version: 6.00 Build 0)  -->
<svg version="1.1" id="Layer_1" xmlns="http://www.w3.org/2000/svg" xmlns:xlink="http://www.w3.org/1999/xlink" x="0px" y="0px"
	 viewBox="0 0 129.7 162.7" style="enable-background:new 0 0 129.7 162.7;" xml:space="preserve">
<style type="text/css">
	.st0{fill:#3EABD6;}
	.st1{fill:#D1E7F0;}
</style>
<circle class="st0" cx="36" cy="14.2" r="2.5"/>
<circle class="st0" cx="54" cy="7.9" r="4"/>
<path class="st1" d="M74.7,14.4c-2.1,0-3.9-1.7-3.9-3.9s1.7-3.9,3.9-3.9s3.9,1.7,3.9,3.9S76.8,14.4,74.7,14.4z M74.7,8.4
	c-1.2,0-2.1,1-2.1,2.1s1,2.1,2.1,2.1s2.1-1,2.1-2.1S75.9,8.4,74.7,8.4z"/>
<path class="st1" d="M84.2,156.5c-2,0.7-4.2-0.4-4.9-2.4c-0.7-2,0.4-4.2,2.4-4.9c2-0.7,4.2,0.4,4.9,2.4
	C87.3,153.6,86.2,155.8,84.2,156.5z M82.3,150.8c-1.1,0.4-1.7,1.6-1.3,2.7c0.4,1.1,1.6,1.7,2.7,1.3c1.1-0.4,1.7-1.6,1.3-2.7
	C84.6,151,83.4,150.4,82.3,150.8z"/>
<circle class="st0" cx="98" cy="151.2" r="2.5"/>
<circle class="st0" cx="108" cy="141.2" r="4"/>
</svg>
