<?xml version="1.0" encoding="utf-8"?>
<!-- Generator: Adobe Illustrator 21.1.0, SVG Export Plug-In . SVG Version: 6.00 Build 0)  -->
<svg version="1.1" id="Layer_1" xmlns="http://www.w3.org/2000/svg" xmlns:xlink="http://www.w3.org/1999/xlink" x="0px" y="0px"
	 viewBox="0 0 129.7 162.7" style="enable-background:new 0 0 129.7 162.7;" xml:space="preserve">
<style type="text/css">
	.st0{fill:#3EABD6;}
	.st1{fill:#D1E7F0;}
</style>
<circle class="st0" cx="61.3" cy="7.2" r="2.5"/>
<circle class="st0" cx="36.7" cy="11.5" r="4"/>
<path class="st1" d="M50.3,8c-2.1,0-3.9-1.7-3.9-3.9s1.7-3.9,3.9-3.9s3.9,1.7,3.9,3.9S52.5,8,50.3,8z M50.3,2c-1.2,0-2.1,1-2.1,2.1
	s1,2.1,2.1,2.1s2.1-1,2.1-2.1S51.5,2,50.3,2z"/>
<path class="st1" d="M63.2,159.7c-2.1,0-3.9-1.7-3.9-3.9s1.7-3.9,3.9-3.9c2.1,0,3.9,1.7,3.9,3.9S65.3,159.7,63.2,159.7z M63.2,153.7
	c-1.2,0-2.1,1-2.1,2.1s1,2.1,2.1,2.1c1.2,0,2.1-1,2.1-2.1S64.3,153.7,63.2,153.7z"/>
<circle class="st0" cx="79.7" cy="156.9" r="2.5"/>
<circle class="st0" cx="44" cy="154.9" r="4"/>
</svg>
