<?xml version="1.0" encoding="utf-8"?>
<!-- Generator: Adobe Illustrator 21.1.0, SVG Export Plug-In . SVG Version: 6.00 Build 0)  -->
<svg version="1.1" id="Layer_1" xmlns="http://www.w3.org/2000/svg" xmlns:xlink="http://www.w3.org/1999/xlink" x="0px" y="0px"
	 viewBox="0 0 129.7 162.7" style="enable-background:new 0 0 129.7 162.7;" xml:space="preserve">
<style type="text/css">
	.st0{fill:#3EABD6;}
	.st1{fill:#D1E7F0;}
</style>
<circle class="st0" cx="-691.5" cy="22.4" r="2.5"/>
<circle class="st0" cx="-663" cy="11.5" r="4"/>
<path class="st1" d="M-682,7.7c-2.1,0-3.9-1.7-3.9-3.9S-684.1,0-682,0s3.9,1.7,3.9,3.9S-679.9,7.7-682,7.7z M-682,1.7
	c-1.2,0-2.1,1-2.1,2.1s1,2.1,2.1,2.1s2.1-1,2.1-2.1S-680.8,1.7-682,1.7z"/>
<path class="st1" d="M-617,162.7c-2.1,0-3.9-1.7-3.9-3.9s1.7-3.9,3.9-3.9s3.9,1.7,3.9,3.9S-614.9,162.7-617,162.7z M-617,156.7
	c-1.2,0-2.1,1-2.1,2.1s1,2.1,2.1,2.1s2.1-1,2.1-2.1S-615.8,156.7-617,156.7z"/>
<circle class="st0" cx="-605.5" cy="146.4" r="2.5"/>
<circle class="st0" cx="-633" cy="157.5" r="4"/>
<ellipse class="st1" cx="-645.8" cy="82.4" rx="64.8" ry="64.5"/>
<circle class="st0" cx="-435.5" cy="19" r="2.5"/>
<circle class="st0" cx="-452.3" cy="6.9" r="4"/>
<path class="st1" d="M-431,8c-2.1,0-3.9-1.7-3.9-3.9s1.7-3.9,3.9-3.9s3.9,1.7,3.9,3.9S-428.9,8-431,8z M-431,2c-1.2,0-2.1,1-2.1,2.1
	s1,2.1,2.1,2.1s2.1-1,2.1-2.1S-429.8,2-431,2z"/>
<path class="st1" d="M-476.8,162.4c-2.1,0-3.9-1.7-3.9-3.9s1.7-3.9,3.9-3.9s3.9,1.7,3.9,3.9S-474.7,162.4-476.8,162.4z
	 M-476.8,156.4c-1.2,0-2.1,1-2.1,2.1s1,2.1,2.1,2.1s2.1-1,2.1-2.1S-475.7,156.4-476.8,156.4z"/>
<circle class="st0" cx="-499" cy="160.2" r="2.5"/>
<circle class="st0" cx="-515.3" cy="147.5" r="4"/>
<ellipse class="st1" cx="-475.5" cy="82.4" rx="64.8" ry="64.5"/>
<circle class="st0" cx="-302.7" cy="7.2" r="2.5"/>
<circle class="st0" cx="-327.3" cy="11.5" r="4"/>
<path class="st1" d="M-313.7,8c-2.1,0-3.9-1.7-3.9-3.9s1.7-3.9,3.9-3.9s3.9,1.7,3.9,3.9S-311.5,8-313.7,8z M-313.7,2
	c-1.2,0-2.1,1-2.1,2.1s1,2.1,2.1,2.1s2.1-1,2.1-2.1S-312.5,2-313.7,2z"/>
<path class="st1" d="M-300.8,159.7c-2.1,0-3.9-1.7-3.9-3.9s1.7-3.9,3.9-3.9s3.9,1.7,3.9,3.9S-298.7,159.7-300.8,159.7z
	 M-300.8,153.7c-1.2,0-2.1,1-2.1,2.1s1,2.1,2.1,2.1s2.1-1,2.1-2.1S-299.7,153.7-300.8,153.7z"/>
<circle class="st0" cx="-284.3" cy="156.9" r="2.5"/>
<circle class="st0" cx="-320" cy="154.9" r="4"/>
<ellipse class="st1" cx="-299.2" cy="82.4" rx="64.8" ry="64.5"/>
<circle class="st0" cx="-78" cy="7.9" r="2.5"/>
<circle class="st0" cx="-66" cy="24.2" r="4"/>
<path class="st1" d="M-59,11.4c-2.1,0-3.9-1.7-3.9-3.9s1.7-3.9,3.9-3.9s3.9,1.7,3.9,3.9S-56.9,11.4-59,11.4z M-59,5.4
	c-1.2,0-2.1,1-2.1,2.1s1,2.1,2.1,2.1s2.1-1,2.1-2.1S-57.8,5.4-59,5.4z"/>
<path class="st1" d="M-142.9,157.5c-2,0.7-4.2-0.4-4.9-2.4c-0.7-2,0.4-4.2,2.4-4.9c2-0.7,4.2,0.4,4.9,2.4S-140.9,156.8-142.9,157.5z
	 M-144.9,151.8c-1.1,0.4-1.7,1.6-1.3,2.7c0.4,1.1,1.6,1.7,2.7,1.3c1.1-0.4,1.7-1.6,1.3-2.7C-142.5,152-143.8,151.4-144.9,151.8z"/>
<circle class="st0" cx="-169" cy="137.9" r="2.5"/>
<circle class="st0" cx="-164" cy="150.2" r="4"/>
<ellipse class="st1" cx="-117.5" cy="82.4" rx="64.8" ry="64.5"/>
<circle class="st0" cx="36" cy="14.2" r="2.5"/>
<circle class="st0" cx="54" cy="7.9" r="4"/>
<path class="st1" d="M74.7,14.4c-2.1,0-3.9-1.7-3.9-3.9s1.7-3.9,3.9-3.9s3.9,1.7,3.9,3.9S76.8,14.4,74.7,14.4z M74.7,8.4
	c-1.2,0-2.1,1-2.1,2.1s1,2.1,2.1,2.1s2.1-1,2.1-2.1S75.9,8.4,74.7,8.4z"/>
<path class="st1" d="M84.2,156.5c-2,0.7-4.2-0.4-4.9-2.4c-0.7-2,0.4-4.2,2.4-4.9c2-0.7,4.2,0.4,4.9,2.4
	C87.3,153.6,86.2,155.8,84.2,156.5z M82.3,150.8c-1.1,0.4-1.7,1.6-1.3,2.7c0.4,1.1,1.6,1.7,2.7,1.3c1.1-0.4,1.7-1.6,1.3-2.7
	C84.6,151,83.4,150.4,82.3,150.8z"/>
<circle class="st0" cx="98" cy="151.2" r="2.5"/>
<circle class="st0" cx="108" cy="141.2" r="4"/>
<ellipse class="st1" cx="64.8" cy="82.4" rx="64.8" ry="64.5"/>
</svg>
