<?xml version="1.0" encoding="utf-8"?>
<!-- Generator: Adobe Illustrator 21.1.0, SVG Export Plug-In . SVG Version: 6.00 Build 0)  -->
<svg version="1.1" id="Layer_1" xmlns="http://www.w3.org/2000/svg" xmlns:xlink="http://www.w3.org/1999/xlink" x="0px" y="0px" width="52" height="52"
	 viewBox="0 0 51.5 51.5" style="enable-background:new 0 0 51.5 51.5;" xml:space="preserve">
<style type="text/css">
	.st0{fill:#0d81d3;}
</style>
<path class="st0" d="M42.5,9.1V7.6C42.5,3.4,39,0,34.8,0H16.7c-4.2,0-7.6,3.4-7.6,7.6v1.4H0v24.4h9.1v0.3c0,9.8,8,17.8,17.8,17.8
	s17.8-8,17.8-17.8V15.9h-0.8c-5.5,0-9.9,4.4-9.9,9.9v3.7c-5.1,0.4-9.1,4.7-9.1,9.9v0.9h1.7v-0.9c0-4.5,3.7-8.2,8.2-8.2h0.8v-5.4
	c0-4.2,3.2-7.7,7.4-8.2v16.1c0,8.9-7.2,16.1-16.1,16.1s-16.1-7.2-16.1-16.1v-0.3h6.8v-1.7h-6.8H9.1H1.7v-21h7.4h1.7h30h1.7h7.4v24.9
	h1.7V9.1H42.5z M10.8,9.1V7.6c0-3.3,2.7-5.9,5.9-5.9h18.1c3.3,0,5.9,2.7,5.9,5.9v1.4H10.8z M25.8,18.1c1.7,0,3.1,1.4,3.1,3.1
	s-1.4,3.1-3.1,3.1s-3.1-1.4-3.1-3.1S24,18.1,25.8,18.1z"/>
</svg>
