<?xml version="1.0" encoding="utf-8"?>
<!-- Generator: Adobe Illustrator 21.1.0, SVG Export Plug-In . SVG Version: 6.00 Build 0)  -->
<svg version="1.1" id="Layer_1" xmlns="http://www.w3.org/2000/svg" xmlns:xlink="http://www.w3.org/1999/xlink" x="0px" y="0px" width="38" height="51"
	 viewBox="0 0 37.4 50.8" style="enable-background:new 0 0 37.4 50.8;" xml:space="preserve">
<style type="text/css">
	.st0{fill:#0d81d3;}
</style>
<path class="st0" d="M16.5,43.3c0-1.2,1-2.2,2.2-2.2c1.2,0,2.2,1,2.2,2.2c0,1.2-1,2.2-2.2,2.2C17.5,45.5,16.5,44.5,16.5,43.3z
	 M37.4,5.3v30.4v1.7v8.1c0,2.9-2.4,5.3-5.3,5.3H5.3c-2.9,0-5.3-2.4-5.3-5.3v-8.1v-1.7V5.3C0,2.4,2.4,0,5.3,0h26.8
	C35,0,37.4,2.4,37.4,5.3z M35.7,37.4h-34v8.1c0,2,1.6,3.6,3.6,3.6h26.8c2,0,3.6-1.6,3.6-3.6V37.4z M35.7,35.7V5.3
	c0-2-1.6-3.6-3.6-3.6H5.3c-2,0-3.6,1.6-3.6,3.6v30.4H35.7z"/>
</svg>
