<?xml version="1.0" encoding="utf-8"?>
<!-- Generator: Adobe Illustrator 21.1.0, SVG Export Plug-In . SVG Version: 6.00 Build 0)  -->
<svg version="1.1" id="Layer_1" xmlns="http://www.w3.org/2000/svg" xmlns:xlink="http://www.w3.org/1999/xlink" x="0px" y="0px" width="40" height="54"
	 viewBox="0 0 39.8 53.7" style="enable-background:new 0 0 39.8 53.7;" xml:space="preserve">
<style type="text/css">
	.st0{fill:#0d81d3;}
</style>
<path class="st0" d="M0,0v33.8c0,4,3,7.3,6.9,7.7v12.2h8.7h1.7h15.6V41.5c3.9-0.4,6.9-3.7,6.9-7.7V0H0z M8.6,52V41.5v-1.7V29.4h7V52
	H8.6z M31.2,52H17.3V29.4h13.9v10.4v1.7V52z M38.1,33.8c0,3.1-2.3,5.6-5.2,6V27.7H17.3h-1.7H6.9v12.1c-3-0.4-5.2-3-5.2-6V1.7h36.4
	V33.8z M32.9,6.9h-26V19h26V6.9z M31.2,17.3H8.6V8.6h22.6V17.3z M22.5,39.8h1.7v6.9h-1.7V39.8z"/>
</svg>
