<?xml version="1.0" encoding="utf-8"?>
<!-- Generator: Adobe Illustrator 21.1.0, SVG Export Plug-In . SVG Version: 6.00 Build 0)  -->
<svg version="1.1" id="Layer_1" xmlns="http://www.w3.org/2000/svg" xmlns:xlink="http://www.w3.org/1999/xlink" x="0px" y="0px" width="53" height="53"
	 viewBox="0 0 52.2 52.2" style="enable-background:new 0 0 52.2 52.2;" xml:space="preserve">
<style type="text/css">
	.st0{fill:#0d81d3;}
</style>
<path class="st0" d="M52.2,0v25.3h-1.7V1.7H1.7V37h23.6v1.7H0V0H52.2z M32,19.4c0,3.3-2.6,5.9-5.9,5.9s-5.9-2.6-5.9-5.9
	c0-3.3,2.6-5.9,5.9-5.9S32,16.1,32,19.4z M30.3,19.4c0-2.3-1.9-4.2-4.2-4.2s-4.2,1.9-4.2,4.2s1.9,4.2,4.2,4.2S30.3,21.7,30.3,19.4z
	 M8.4,23.6v-8.5c3.6-0.4,6.3-3.1,6.7-6.7h22c0.4,3.6,3.1,6.3,6.7,6.7v6.8h1.7v-8.4h-0.8c-3.4,0-5.9-2.5-5.9-5.9V6.7H13.5v0.9
	c0,3.4-2.5,5.9-5.9,5.9H6.7v11.8h0.8c3.4,0,5.9,2.5,5.9,5.9V32h11.8v-1.7H15.1C14.7,26.7,12,24,8.4,23.6z M52.2,32.8v6.7v6.7
	c0,3.3-4.8,5.9-10.9,5.9c-6.1,0-11-2.6-11-5.9v-6.7v-6.7c0-3.3,4.8-5.9,11-5.9C47.4,26.9,52.2,29.5,52.2,32.8z M50.5,46.3v-3.5
	c-1.9,1.6-5.3,2.7-9.3,2.7c-3.9,0-7.3-1.1-9.3-2.7v3.5c0,2,3.8,4.2,9.3,4.2S50.5,48.3,50.5,46.3z M50.5,39.6V36
	c-1.9,1.6-5.3,2.7-9.3,2.7c-3.9,0-7.3-1.1-9.3-2.7v3.5c0,2,3.8,4.2,9.3,4.2S50.5,41.6,50.5,39.6z M50.5,32.8c0-2-3.8-4.2-9.3-4.2
	S32,30.8,32,32.8c0,2,3.8,4.2,9.3,4.2S50.5,34.8,50.5,32.8z"/>
</svg>
