<?xml version="1.0" encoding="utf-8"?>
<!-- Generator: Adobe Illustrator 22.0.1, SVG Export Plug-In . SVG Version: 6.00 Build 0)  -->
<svg version="1.1" id="Layer_1" xmlns="http://www.w3.org/2000/svg" xmlns:xlink="http://www.w3.org/1999/xlink" x="0px" y="0px" width="215" height="67"
	 viewBox="0 0 198.4 61" style="enable-background:new 0 0 198.4 61;" xml:space="preserve">
<style type="text/css">
	.st0{fill:#FFFFFF;}
	.st1{fill:#023F88;}
	.st2{fill:#D2232A;}
</style>
<g>
	<g>
		<g>
			<g>
				<path class="st0" d="M198.4,34.8c0-3.4-1.3-6.7-3.8-9.2c-2.5-2.5-5.7-3.8-9.2-3.8H27.7h-2v2V48c0,3.5,1.4,6.8,3.8,9.2
					c2.5,2.5,5.7,3.8,9.2,3.8h157.7h2v-2V34.8z"/>
				<path class="st1" d="M196.5,59.1H38.8c-6.1,0-11.1-4.9-11.1-11V23.7h157.7c6.1,0,11.1,5,11.1,11V59.1z"/>
				<path class="st0" d="M79.8,49.9c-1.3,1.3-2.7,2.1-4.5,2.1c-2.8,0-4.8-1.8-4.8-5.4v-9.2h3.8V46c0,2,0.9,3.3,2.7,3.3
					c1.3,0,2.9-0.9,2.9-3.5v-8.5h3.8v14.3h-3.8V49.9z"/>
				<path class="st0" d="M155.1,39.2c1.3-1.3,3-2.1,4.8-2.1c2.8,0,5.1,1.8,5.1,5.4v9.2h-3.8V43c0-2-1.2-3.3-3-3.3
					c-1.3,0-3.2,0.9-3.2,3.5v8.5h-3.8V37.4h3.8V39.2z"/>
				<path class="st0" d="M91.8,39.9L91.8,39.9c0.1,0,1.5-2.9,3.3-2.9c0.8,0,1.8,0.5,2.6,1.3L96.2,41c-0.6-0.3-1-0.5-1.8-0.5
					c-1.3,0-2.6,1-2.6,4.1v7.1H88V37.4h3.8V39.9z"/>
				<polygon class="st0" points="169.4,30.7 173.2,30.7 173.2,43 173.4,43 178.4,37.1 181.9,37.1 176.5,43.6 183.1,51.7 178.7,51.7 
					173.3,44.1 173.2,44.1 173.2,51.7 169.4,51.7 				"/>
				<path class="st0" d="M62.7,49c-2.8,0-3.6-1.1-3.6-2.7v-3.8h6.6v-2.7h-6.6v-5.5h6.7v-2.7H55v15c0,2.6,1.4,5,4.5,5H67V49H62.7z"/>
				<path class="st0" d="M139,52c-3.1,0-4.6-1.9-4.6-4c0-3.2,2-4.6,5.3-5.6l3.3-1c-0.2-1.3-1.3-2.2-2.5-2.2c-1.6,0-2.8,0.6-3.8,1.5
					l-1.2-1.8c1.8-1.5,3.5-2,5.5-2c2.6,0,5.9,0.9,5.9,5.3v5.8c0,1.4,0.1,2.5,0.6,3.5h-4.1c-0.2-0.7-0.3-1.3-0.3-2.1
					C143,49.6,141.4,52,139,52 M106.2,52c4.1,0,7.5-3.4,7.5-7.5c0-4.1-3.4-7.5-7.5-7.5c-4.1,0-7.5,3.4-7.5,7.5
					C98.7,48.7,102,52,106.2,52 M125.4,37c-1.8,0-3.4,0.9-4.5,2.3h0v-8.7H117v21h3.8v-1.8c1.2,1.3,2.8,2.1,4.5,2.1
					c3.5,0,6.4-3.4,6.4-7.5C131.8,40.4,128.9,37,125.4,37 M140.9,44.1c-1.9,0.6-2.8,1.7-2.8,3.3c0,1.2,0.7,2.1,1.7,2.1
					c1.6,0,3.3-1.6,3.3-6.1L140.9,44.1z M106.2,39.2c2,0,3.5,1.9,3.5,5.4c0,3.5-1.4,5.4-3.5,5.4c-2,0-3.5-1.8-3.5-5.4
					C102.7,41,104.1,39.2,106.2,39.2 M124.3,39.2c2,0,3.4,1.9,3.4,5.4c0,3.5-1.4,5.4-3.4,5.4c-2,0-3.5-1.8-3.5-5.4
					C120.9,41,122.3,39.2,124.3,39.2"/>
				<g>
					<path class="st0" d="M23.7,47.5c13.1,0,23.8-10.6,23.8-23.7C47.5,10.6,36.9,0,23.7,0C10.6,0,0,10.6,0,23.7
						C0,36.8,10.6,47.5,23.7,47.5"/>
				</g>
			</g>
		</g>
	</g>
	<path class="st2" d="M1.9,23.7c0,12,9.8,21.8,21.8,21.8c12,0,21.8-9.8,21.8-21.8c0-12-9.8-21.8-21.8-21.8C11.7,2,1.9,11.7,1.9,23.7
		"/>
	<path class="st0" d="M26.3,8.3C26,8.2,25.7,8,25.4,7.9c-2.6-1-5.6,0.3-7.3,3L8.2,25.5c-1.5,2.2-1.2,5.3,0.8,7.2
		c1.1,1.1,2.6,1.7,4.1,1.7h23.6L32,29H12.4L26.3,8.3z"/>
	<path class="st0" d="M29.4,20.2l-3.2,5h-6.5l9.1-14.1l10.4,12.1c2.6,2.9,2.2,6.2,0.4,8.7L29.4,20.2z"/>
</g>
</svg>
